<?xml version="1.0" encoding="UTF-8"?><svg xmlns="http://www.w3.org/2000/svg" viewBox="0 0 172 52.85"><defs><style>.cls-1{fill:#06c;}.cls-2{fill:#f3f4ef;}.cls-3{fill:#cd2129;}.cls-4{fill:#008b44;}</style></defs><g id="Layer_2"><path class="cls-4" d="M156.39,34.36c-.47,.18-.92,.38-1.37,.59-.64,.28-1.27,.56-1.91,.84,.43-.23,.85-.47,1.27-.7,2.57-1.45,.32-5.07-2.27-3.88-.8,.37-1.57,.79-2.32,1.25-.41,.21-.82,.41-1.23,.61-.84-.08-1.67-.06-2.48,.04-.27-.11-.57-.15-.9-.12,2.16-1.57,.01-4.92-2.49-3.74-1.72,.82-3.39,1.76-5,2.8-1.94,1.04-3.89,2.05-5.84,3.07-3.17,1.66-5.55,4.45-8.88,5.87-2.34,1-.84,4.12,1.35,4.08-1.11,2.06,1.98,4.13,3.69,2.47,1.83-1.78,3.89-3.31,6.07-4.65-.52,.79-1,1.61-1.43,2.46-.8,1.58,.54,4.07,2.54,3.3,2.53-.98,5.02-2.05,7.5-3.15,.08,.17,.17,.35,.27,.52,.6,1.03,2.04,1.46,3.08,.81,3.51-2.22,6.4-5.58,10.11-7.48,.66-.29,1.31-.59,1.97-.87,2.33-1.01,.64-5.01-1.73-4.11Z"/><path class="cls-2" d="M165.81,38.59c.05-.91-.48-1.89-1.31-2.32,.69-.33,1.35-.71,1.98-1.18,1.91-1.43,.89-4.93-1.73-4.11-2.39,.75-4.62,1.83-6.78,3.05-1.94,.64-3.89,1.28-5.61,2.4-4.46,2.9-8.48,6.48-12.41,10.05-2.15,1.95,1.04,5.12,3.18,3.18,.4-.36,.8-.72,1.2-1.08,.26,.02,.54-.02,.83-.12,1.54-.52,3.08-1.08,4.6-1.66,.52,.55,1.3,.85,2.15,.59,.61-.18,1.21-.39,1.8-.61-.08,1.63,1.73,3.32,3.35,2.16,3.23-2.31,6.58-4.42,10.13-6.22,2.28-1.16,.78-4.31-1.38-4.14Z"/><path class="cls-3" d="M169.78,47.78c-.26,0-.52,.02-.78,.03,.14-.18,.28-.36,.41-.56,.03-.05,.06-.1,.09-.15,.29-.08,.59-.15,.88-.23,2.88-.8,1.59-4.72-1.19-4.34-5.27,.73-11.07,1.87-15.81,4.57-.97,.45-1.93,.94-2.86,1.52-2.21,1.37-.6,4.66,1.54,4.18,.23,0,.47-.01,.72-.08,1.97-.49,3.91-1.1,5.84-1.72,.23,.82,.94,1.51,2.1,1.62,3.02,.3,6.04-.3,9.06-.36,2.9-.05,2.9-4.55,0-4.5Z"/></g><g id="Layer_1"><path class="cls-1" d="M39.39,38.9h-8.53l-3.54-9.26H10.28l-3.47,9.26H0L14.7,0h9.83l14.86,38.9Zm-14.21-14.88L18.72,6.67l-6.46,17.36h12.91Z"/><path class="cls-1" d="M71.51,38.9h-7.75L46.95,14.05c-.26-.38-.68-1-1.27-1.85-.26-.38-.66-.98-1.2-1.79v28.5h-6.42V0h8.83l15.51,22.91c.13,.19,1.07,1.59,2.82,4.19V0h6.29V38.9Z"/><path class="cls-1" d="M82.58,38.9h-7.98V0h18.14c5.17,0,9,1.14,11.5,3.43,2.5,2.29,3.75,4.99,3.75,8.11,0,3.55-1.35,6.43-4.06,8.64-2.7,2.2-6.13,3.31-10.28,3.31h-11.06v15.42Zm0-21.43h9.44c2.47,0,4.35-.53,5.64-1.6,1.3-1.06,1.95-2.48,1.95-4.25,0-1.6-.6-2.96-1.8-4.1-1.2-1.14-3.37-1.71-6.51-1.71h-8.73v11.66Z"/><path class="cls-1" d="M142.29,38.9h-8.44l-6.88-15.99h-11.23v15.99h-7.98V0h19.21c5.34,0,9.27,1.06,11.78,3.18,2.51,2.12,3.76,4.86,3.76,8.22,0,5-2.66,8.44-7.98,10.32l7.75,17.19Zm-26.54-21.6h9.93c2.88,0,5.02-.53,6.42-1.59,1.41-1.07,2.11-2.53,2.11-4.39,0-1.71-.69-3.09-2.08-4.15-1.38-1.05-3.32-1.58-5.81-1.58h-10.58v11.71Z"/></g></svg>